<svg width="28" height="29" viewBox="0 0 28 29" fill="none" xmlns="http://www.w3.org/2000/svg">
<path d="M19.0868 16.9167C19.1802 16.1192 19.2502 15.3217 19.2502 14.5C19.2502 13.6783 19.1802 12.8808 19.0868 12.0833H23.0302C23.2168 12.8567 23.3335 13.6662 23.3335 14.5C23.3335 15.3337 23.2168 16.1433 23.0302 16.9167M17.0218 23.635C17.7218 22.2937 18.2585 20.8437 18.6318 19.3333H22.0735C20.9432 21.3492 19.15 22.8762 17.0218 23.635ZM16.7302 16.9167H11.2702C11.1535 16.1192 11.0835 15.3217 11.0835 14.5C11.0835 13.6783 11.1535 12.8687 11.2702 12.0833H16.7302C16.8352 12.8687 16.9168 13.6783 16.9168 14.5C16.9168 15.3217 16.8352 16.1192 16.7302 16.9167ZM14.0002 24.1183C13.0318 22.6683 12.2502 21.0612 11.7718 19.3333H16.2285C15.7502 21.0612 14.9685 22.6683 14.0002 24.1183ZM9.3335 9.66666H5.92683C7.04549 7.64537 8.83742 6.11595 10.9668 5.36499C10.2668 6.70624 9.74183 8.15624 9.3335 9.66666ZM5.92683 19.3333H9.3335C9.74183 20.8437 10.2668 22.2937 10.9668 23.635C8.84189 22.8758 7.05248 21.3485 5.92683 19.3333ZM4.97016 16.9167C4.7835 16.1433 4.66683 15.3337 4.66683 14.5C4.66683 13.6662 4.7835 12.8567 4.97016 12.0833H8.9135C8.82016 12.8808 8.75016 13.6783 8.75016 14.5C8.75016 15.3217 8.82016 16.1192 8.9135 16.9167M14.0002 4.86957C14.9685 6.31957 15.7502 7.93874 16.2285 9.66666H11.7718C12.2502 7.93874 13.0318 6.31957 14.0002 4.86957ZM22.0735 9.66666H18.6318C18.2667 8.17008 17.726 6.72545 17.0218 5.36499C19.1685 6.12624 20.9535 7.66082 22.0735 9.66666ZM14.0002 2.41666C7.5485 2.41666 2.3335 7.85416 2.3335 14.5C2.3335 17.7047 3.56266 20.7781 5.75058 23.0442C6.83393 24.1662 8.12006 25.0563 9.53552 25.6635C10.951 26.2708 12.4681 26.5833 14.0002 26.5833C17.0944 26.5833 20.0618 25.3103 22.2497 23.0442C24.4377 20.7781 25.6668 17.7047 25.6668 14.5C25.6668 12.9132 25.3651 11.3419 24.7788 9.8759C24.1925 8.40988 23.3331 7.07782 22.2497 5.95578C21.1664 4.83374 19.8803 3.94369 18.4648 3.33645C17.0493 2.7292 15.5323 2.41666 14.0002 2.41666Z" fill="black"/>
</svg>