<svg width="12" height="12" viewBox="0 0 12 12" fill="none" xmlns="http://www.w3.org/2000/svg">
<path d="M3.00001 6C4.30601 6 5.41801 6.835 5.83001 8H12V10H5.82901C5.64583 10.5189 5.32351 10.9774 4.89728 11.3255C4.47106 11.6735 3.95734 11.8977 3.41231 11.9734C2.86727 12.0492 2.3119 11.9736 1.80691 11.755C1.30193 11.5364 0.866774 11.1831 0.549029 10.7339C0.231285 10.2846 0.0431836 9.75661 0.0052929 9.20764C-0.0325978 8.65867 0.0811808 8.10985 0.334188 7.62119C0.587195 7.13253 0.96969 6.72284 1.43985 6.43692C1.91001 6.15099 2.44974 5.99985 3.00001 6ZM3.00001 8C2.73479 8 2.48044 8.10536 2.2929 8.29289C2.10537 8.48043 2.00001 8.73478 2.00001 9C2.00001 9.26522 2.10537 9.51957 2.2929 9.70711C2.48044 9.89464 2.73479 10 3.00001 10C3.26523 10 3.51958 9.89464 3.70712 9.70711C3.89465 9.51957 4.00001 9.26522 4.00001 9C4.00001 8.73478 3.89465 8.48043 3.70712 8.29289C3.51958 8.10536 3.26523 8 3.00001 8ZM9.00001 1.24966e-07C9.54998 0.00010515 10.0893 0.151391 10.5591 0.437322C11.0289 0.723253 11.4111 1.13283 11.6639 1.62128C11.9166 2.10973 12.0302 2.65826 11.9923 3.20693C11.9544 3.75559 11.7663 4.28326 11.4488 4.73228C11.1312 5.1813 10.6963 5.53439 10.1916 5.75294C9.68694 5.9715 9.13189 6.04712 8.58714 5.97153C8.04239 5.89595 7.52889 5.67207 7.10278 5.32437C6.67667 4.97667 6.35433 4.51852 6.17101 4H1.09741e-05V2H6.17001C6.37702 1.41493 6.76033 0.908421 7.26716 0.55024C7.77398 0.192059 8.37939 -0.000178928 9.00001 1.24966e-07ZM9.00001 2C8.73479 2 8.48044 2.10536 8.2929 2.29289C8.10537 2.48043 8.00001 2.73478 8.00001 3C8.00001 3.26522 8.10537 3.51957 8.2929 3.70711C8.48044 3.89464 8.73479 4 9.00001 4C9.26523 4 9.51958 3.89464 9.70712 3.70711C9.89465 3.51957 10 3.26522 10 3C10 2.73478 9.89465 2.48043 9.70712 2.29289C9.51958 2.10536 9.26523 2 9.00001 2Z" fill="black"/>
</svg>