<svg width="103" height="47" viewBox="0 0 103 47" fill="none" xmlns="http://www.w3.org/2000/svg">
<rect x="0.865234" y="1.25" width="96.652" height="45.5" rx="22.75" fill="white" stroke="#A7A7A7" stroke-width="0.5"/>
<path d="M21 15H41V18H21V15ZM21 30L30.7169 30L41 30V33H21V30ZM21 22.5H41V25.5H21V22.5Z" fill="#515151"/>
<path d="M71.4464 35.251C67.3348 35.251 63.7002 33.08 61.5786 29.8235C61.6279 26.4314 68.1571 24.5657 71.4464 24.5657C74.7357 24.5657 81.2649 26.4314 81.3143 29.8235C80.227 31.4932 78.7583 32.8615 77.0375 33.8079C75.3167 34.7544 73.3966 35.2499 71.4464 35.251ZM71.4464 11.1667C72.755 11.1667 74.01 11.7028 74.9352 12.657C75.8605 13.6113 76.3804 14.9055 76.3804 16.2549C76.3804 17.6044 75.8605 18.8986 74.9352 19.8529C74.01 20.8071 72.755 21.3432 71.4464 21.3432C70.1379 21.3432 68.8829 20.8071 67.9576 19.8529C67.0323 18.8986 66.5125 17.6044 66.5125 16.2549C66.5125 14.9055 67.0323 13.6113 67.9576 12.657C68.8829 11.7028 70.1379 11.1667 71.4464 11.1667ZM71.4464 6.07849C69.2867 6.07849 67.148 6.51719 65.1527 7.36955C63.1573 8.22191 61.3442 9.47123 59.817 11.0462C56.7327 14.2269 55 18.541 55 23.0392C55 27.5375 56.7327 31.8515 59.817 35.0323C61.3442 36.6073 63.1573 37.8566 65.1527 38.7089C67.148 39.5613 69.2867 40 71.4464 40C75.8083 40 79.9915 38.2131 83.0758 35.0323C86.1601 31.8515 87.8929 27.5375 87.8929 23.0392C87.8929 13.6599 80.492 6.07849 71.4464 6.07849Z" fill="#575757"/>
<g filter="url(#filter0_d_6_532)">
<ellipse cx="7.10533" cy="7.32753" rx="7.10533" ry="7.32753" transform="matrix(-1 0 0 1 92 1)" fill="#F86680"/>
<path d="M84.8947 15.9051C80.8252 15.9051 77.5393 12.5052 77.5393 8.32753C77.5393 4.14989 80.8252 0.75 84.8947 0.75C88.9641 0.75 92.25 4.14989 92.25 8.32753C92.25 12.5052 88.9641 15.9051 84.8947 15.9051Z" stroke="white" stroke-width="0.5"/>
</g>
<defs>
<filter id="filter0_d_6_532" x="67.2896" y="0.5" width="35.2104" height="35.6551" filterUnits="userSpaceOnUse" color-interpolation-filters="sRGB">
<feFlood flood-opacity="0" result="BackgroundImageFix"/>
<feColorMatrix in="SourceAlpha" type="matrix" values="0 0 0 0 0 0 0 0 0 0 0 0 0 0 0 0 0 0 127 0" result="hardAlpha"/>
<feOffset dy="10"/>
<feGaussianBlur stdDeviation="5"/>
<feComposite in2="hardAlpha" operator="out"/>
<feColorMatrix type="matrix" values="0 0 0 0 1 0 0 0 0 1 0 0 0 0 1 0 0 0 0.25 0"/>
<feBlend mode="normal" in2="BackgroundImageFix" result="effect1_dropShadow_6_532"/>
<feBlend mode="normal" in="SourceGraphic" in2="effect1_dropShadow_6_532" result="shape"/>
</filter>
</defs>
</svg>
